<mxfile host="Electron" agent="Mozilla/5.0 (Windows NT 10.0; Win64; x64) AppleWebKit/537.36 (KHTML, like Gecko) draw.io/24.7.17 Chrome/128.0.6613.36 Electron/32.0.1 Safari/537.36" version="24.7.17">
  <diagram name="Страница — 1" id="kAlCPUtNzBLGzc_GxQYV">
    <mxGraphModel dx="1290" dy="621" grid="1" gridSize="10" guides="1" tooltips="1" connect="1" arrows="1" fold="1" page="1" pageScale="1" pageWidth="827" pageHeight="1169" math="0" shadow="0">
      <root>
        <mxCell id="0" />
        <mxCell id="1" parent="0" />
        <mxCell id="MoRENDN0Ap5jospG5ebb-1" value="viewer" style="swimlane;whiteSpace=wrap;html=1;" vertex="1" parent="1">
          <mxGeometry x="100" y="80" width="200" height="820" as="geometry" />
        </mxCell>
        <mxCell id="MoRENDN0Ap5jospG5ebb-2" value="" style="endArrow=classic;html=1;rounded=0;" edge="1" parent="MoRENDN0Ap5jospG5ebb-1">
          <mxGeometry width="50" height="50" relative="1" as="geometry">
            <mxPoint x="-20" y="60" as="sourcePoint" />
            <mxPoint x="200" y="60" as="targetPoint" />
          </mxGeometry>
        </mxCell>
        <mxCell id="MoRENDN0Ap5jospG5ebb-3" value="пользователь входит в личный кабинет" style="edgeLabel;html=1;align=center;verticalAlign=middle;resizable=0;points=[];" vertex="1" connectable="0" parent="MoRENDN0Ap5jospG5ebb-2">
          <mxGeometry x="-0.1018" y="-1" relative="1" as="geometry">
            <mxPoint x="11" y="-21" as="offset" />
          </mxGeometry>
        </mxCell>
        <mxCell id="MoRENDN0Ap5jospG5ebb-4" value="страница с личным кабинетом" style="rounded=0;whiteSpace=wrap;html=1;" vertex="1" parent="MoRENDN0Ap5jospG5ebb-1">
          <mxGeometry x="20" y="540" width="120" height="60" as="geometry" />
        </mxCell>
        <mxCell id="MoRENDN0Ap5jospG5ebb-5" value="страница отчёта приёма" style="rounded=0;whiteSpace=wrap;html=1;" vertex="1" parent="MoRENDN0Ap5jospG5ebb-1">
          <mxGeometry x="20" y="700" width="120" height="60" as="geometry" />
        </mxCell>
        <mxCell id="MoRENDN0Ap5jospG5ebb-11" value="" style="endArrow=classic;html=1;rounded=0;exitX=1;exitY=0.25;exitDx=0;exitDy=0;" edge="1" parent="MoRENDN0Ap5jospG5ebb-1" source="MoRENDN0Ap5jospG5ebb-5">
          <mxGeometry width="50" height="50" relative="1" as="geometry">
            <mxPoint x="270" y="710" as="sourcePoint" />
            <mxPoint x="138" y="750" as="targetPoint" />
            <Array as="points">
              <mxPoint x="180" y="715" />
              <mxPoint x="180" y="750" />
            </Array>
          </mxGeometry>
        </mxCell>
        <mxCell id="MoRENDN0Ap5jospG5ebb-12" value="неполностью заполненный отчёт" style="edgeLabel;html=1;align=center;verticalAlign=middle;resizable=0;points=[];" vertex="1" connectable="0" parent="MoRENDN0Ap5jospG5ebb-11">
          <mxGeometry x="0.12" y="1" relative="1" as="geometry">
            <mxPoint x="69" y="-11" as="offset" />
          </mxGeometry>
        </mxCell>
        <mxCell id="MoRENDN0Ap5jospG5ebb-6" value="controller" style="swimlane;whiteSpace=wrap;html=1;" vertex="1" parent="1">
          <mxGeometry x="300" y="80" width="160" height="820" as="geometry" />
        </mxCell>
        <mxCell id="MoRENDN0Ap5jospG5ebb-7" value="" style="endArrow=classic;html=1;rounded=0;" edge="1" parent="MoRENDN0Ap5jospG5ebb-6">
          <mxGeometry width="50" height="50" relative="1" as="geometry">
            <mxPoint x="100" y="60" as="sourcePoint" />
            <mxPoint x="190" y="60" as="targetPoint" />
          </mxGeometry>
        </mxCell>
        <mxCell id="MoRENDN0Ap5jospG5ebb-8" value="private_data()" style="edgeLabel;html=1;align=center;verticalAlign=middle;resizable=0;points=[];" vertex="1" connectable="0" parent="MoRENDN0Ap5jospG5ebb-7">
          <mxGeometry x="-0.5156" y="3" relative="1" as="geometry">
            <mxPoint y="-17" as="offset" />
          </mxGeometry>
        </mxCell>
        <mxCell id="MoRENDN0Ap5jospG5ebb-9" value="" style="endArrow=classic;html=1;rounded=0;" edge="1" parent="MoRENDN0Ap5jospG5ebb-6">
          <mxGeometry width="50" height="50" relative="1" as="geometry">
            <mxPoint x="55" y="670" as="sourcePoint" />
            <mxPoint x="-210" y="670" as="targetPoint" />
          </mxGeometry>
        </mxCell>
        <mxCell id="MoRENDN0Ap5jospG5ebb-10" value="переадресация в /cabinet/receptaion" style="edgeLabel;html=1;align=center;verticalAlign=middle;resizable=0;points=[];" vertex="1" connectable="0" parent="MoRENDN0Ap5jospG5ebb-9">
          <mxGeometry x="-0.1147" y="1" relative="1" as="geometry">
            <mxPoint y="-21" as="offset" />
          </mxGeometry>
        </mxCell>
        <mxCell id="MoRENDN0Ap5jospG5ebb-13" value="model" style="swimlane;whiteSpace=wrap;html=1;" vertex="1" parent="1">
          <mxGeometry x="460" y="80" width="210" height="820" as="geometry" />
        </mxCell>
        <mxCell id="MoRENDN0Ap5jospG5ebb-14" value="sql_provider" style="rounded=0;whiteSpace=wrap;html=1;" vertex="1" parent="MoRENDN0Ap5jospG5ebb-13">
          <mxGeometry x="30" y="40" width="120" height="60" as="geometry" />
        </mxCell>
        <mxCell id="MoRENDN0Ap5jospG5ebb-15" value="__enter__&lt;br&gt;DBconnection" style="rounded=0;whiteSpace=wrap;html=1;" vertex="1" parent="MoRENDN0Ap5jospG5ebb-13">
          <mxGeometry x="30" y="140" width="120" height="60" as="geometry" />
        </mxCell>
        <mxCell id="MoRENDN0Ap5jospG5ebb-16" value="db_config&amp;nbsp;&lt;br&gt;sql_statment" style="edgeLabel;html=1;align=center;verticalAlign=middle;resizable=0;points=[];" vertex="1" connectable="0" parent="MoRENDN0Ap5jospG5ebb-13">
          <mxGeometry x="50" y="120" as="geometry" />
        </mxCell>
        <mxCell id="MoRENDN0Ap5jospG5ebb-17" value="" style="endArrow=classic;html=1;rounded=0;exitX=0.5;exitY=1;exitDx=0;exitDy=0;" edge="1" parent="MoRENDN0Ap5jospG5ebb-13">
          <mxGeometry width="50" height="50" relative="1" as="geometry">
            <mxPoint x="89.5" y="200" as="sourcePoint" />
            <mxPoint x="89.5" y="250" as="targetPoint" />
          </mxGeometry>
        </mxCell>
        <mxCell id="MoRENDN0Ap5jospG5ebb-18" value="doctor_name&lt;br&gt;specialization&lt;br&gt;name_department" style="rounded=0;whiteSpace=wrap;html=1;" vertex="1" parent="MoRENDN0Ap5jospG5ebb-13">
          <mxGeometry x="30" y="250" width="120" height="60" as="geometry" />
        </mxCell>
        <mxCell id="MoRENDN0Ap5jospG5ebb-19" value="" style="endArrow=classic;html=1;rounded=0;" edge="1" parent="MoRENDN0Ap5jospG5ebb-13">
          <mxGeometry width="50" height="50" relative="1" as="geometry">
            <mxPoint x="-60" y="340" as="sourcePoint" />
            <mxPoint x="30" y="340" as="targetPoint" />
          </mxGeometry>
        </mxCell>
        <mxCell id="MoRENDN0Ap5jospG5ebb-20" value="shedule()" style="edgeLabel;html=1;align=center;verticalAlign=middle;resizable=0;points=[];" vertex="1" connectable="0" parent="MoRENDN0Ap5jospG5ebb-19">
          <mxGeometry x="-0.5156" y="3" relative="1" as="geometry">
            <mxPoint y="-17" as="offset" />
          </mxGeometry>
        </mxCell>
        <mxCell id="MoRENDN0Ap5jospG5ebb-21" value="sql_provider" style="rounded=0;whiteSpace=wrap;html=1;" vertex="1" parent="MoRENDN0Ap5jospG5ebb-13">
          <mxGeometry x="30" y="320" width="120" height="60" as="geometry" />
        </mxCell>
        <mxCell id="MoRENDN0Ap5jospG5ebb-22" value="__enter__&lt;br&gt;DBconnection" style="rounded=0;whiteSpace=wrap;html=1;" vertex="1" parent="MoRENDN0Ap5jospG5ebb-13">
          <mxGeometry x="30" y="420" width="120" height="60" as="geometry" />
        </mxCell>
        <mxCell id="MoRENDN0Ap5jospG5ebb-23" value="db_config&amp;nbsp;&lt;br&gt;sql_statment" style="edgeLabel;html=1;align=center;verticalAlign=middle;resizable=0;points=[];" vertex="1" connectable="0" parent="MoRENDN0Ap5jospG5ebb-13">
          <mxGeometry x="50" y="400" as="geometry" />
        </mxCell>
        <mxCell id="MoRENDN0Ap5jospG5ebb-24" value="" style="endArrow=classic;html=1;rounded=0;exitX=0.5;exitY=1;exitDx=0;exitDy=0;" edge="1" parent="MoRENDN0Ap5jospG5ebb-13">
          <mxGeometry width="50" height="50" relative="1" as="geometry">
            <mxPoint x="89.5" y="480" as="sourcePoint" />
            <mxPoint x="89.5" y="530" as="targetPoint" />
          </mxGeometry>
        </mxCell>
        <mxCell id="MoRENDN0Ap5jospG5ebb-25" value="rec_time&lt;br&gt;name_patient&lt;br&gt;id_shedule" style="rounded=0;whiteSpace=wrap;html=1;" vertex="1" parent="MoRENDN0Ap5jospG5ebb-13">
          <mxGeometry x="30" y="530" width="120" height="60" as="geometry" />
        </mxCell>
        <mxCell id="MoRENDN0Ap5jospG5ebb-26" value="" style="endArrow=classic;html=1;rounded=0;exitX=0.5;exitY=1;exitDx=0;exitDy=0;" edge="1" parent="MoRENDN0Ap5jospG5ebb-13" source="MoRENDN0Ap5jospG5ebb-21">
          <mxGeometry width="50" height="50" relative="1" as="geometry">
            <mxPoint x="130" y="490" as="sourcePoint" />
            <mxPoint x="90" y="420" as="targetPoint" />
          </mxGeometry>
        </mxCell>
        <mxCell id="MoRENDN0Ap5jospG5ebb-27" value="подключение к бд" style="edgeLabel;html=1;align=center;verticalAlign=middle;resizable=0;points=[];" vertex="1" connectable="0" parent="MoRENDN0Ap5jospG5ebb-13">
          <mxGeometry x="200" y="439.5" as="geometry" />
        </mxCell>
        <mxCell id="MoRENDN0Ap5jospG5ebb-28" value="" style="endArrow=classic;html=1;rounded=0;exitX=0;exitY=0.5;exitDx=0;exitDy=0;" edge="1" parent="MoRENDN0Ap5jospG5ebb-13" source="MoRENDN0Ap5jospG5ebb-25">
          <mxGeometry width="50" height="50" relative="1" as="geometry">
            <mxPoint x="-70" y="550" as="sourcePoint" />
            <mxPoint x="-50" y="560" as="targetPoint" />
          </mxGeometry>
        </mxCell>
        <mxCell id="MoRENDN0Ap5jospG5ebb-29" value="сохрание данных в &lt;br&gt;переменную &lt;br&gt;unique_data" style="edgeLabel;html=1;align=center;verticalAlign=middle;resizable=0;points=[];" vertex="1" connectable="0" parent="MoRENDN0Ap5jospG5ebb-28">
          <mxGeometry x="0.23" y="4" relative="1" as="geometry">
            <mxPoint x="-11" y="-34" as="offset" />
          </mxGeometry>
        </mxCell>
        <mxCell id="MoRENDN0Ap5jospG5ebb-50" value="" style="endArrow=classic;html=1;rounded=0;exitX=0.5;exitY=1;exitDx=0;exitDy=0;" edge="1" parent="1" source="MoRENDN0Ap5jospG5ebb-14">
          <mxGeometry width="50" height="50" relative="1" as="geometry">
            <mxPoint x="590" y="290" as="sourcePoint" />
            <mxPoint x="550" y="220" as="targetPoint" />
          </mxGeometry>
        </mxCell>
        <mxCell id="MoRENDN0Ap5jospG5ebb-51" value="" style="endArrow=classic;html=1;rounded=0;" edge="1" parent="1">
          <mxGeometry width="50" height="50" relative="1" as="geometry">
            <mxPoint x="610" y="249.5" as="sourcePoint" />
            <mxPoint x="720" y="249.5" as="targetPoint" />
          </mxGeometry>
        </mxCell>
        <mxCell id="MoRENDN0Ap5jospG5ebb-52" value="подключение к бд" style="edgeLabel;html=1;align=center;verticalAlign=middle;resizable=0;points=[];" vertex="1" connectable="0" parent="MoRENDN0Ap5jospG5ebb-51">
          <mxGeometry x="0.145" y="3" relative="1" as="geometry">
            <mxPoint x="-13" y="-7" as="offset" />
          </mxGeometry>
        </mxCell>
        <mxCell id="MoRENDN0Ap5jospG5ebb-53" value="" style="endArrow=classic;html=1;rounded=0;exitX=0;exitY=0.5;exitDx=0;exitDy=0;" edge="1" parent="1" source="MoRENDN0Ap5jospG5ebb-18">
          <mxGeometry width="50" height="50" relative="1" as="geometry">
            <mxPoint x="390" y="350" as="sourcePoint" />
            <mxPoint x="410" y="360" as="targetPoint" />
          </mxGeometry>
        </mxCell>
        <mxCell id="MoRENDN0Ap5jospG5ebb-54" value="сохрание данных в &lt;br&gt;переменную &lt;br&gt;info_data" style="edgeLabel;html=1;align=center;verticalAlign=middle;resizable=0;points=[];" vertex="1" connectable="0" parent="MoRENDN0Ap5jospG5ebb-53">
          <mxGeometry x="0.23" y="4" relative="1" as="geometry">
            <mxPoint x="-11" y="-34" as="offset" />
          </mxGeometry>
        </mxCell>
        <mxCell id="MoRENDN0Ap5jospG5ebb-55" value="" style="endArrow=classic;html=1;rounded=0;" edge="1" parent="1">
          <mxGeometry width="50" height="50" relative="1" as="geometry">
            <mxPoint x="610" y="530" as="sourcePoint" />
            <mxPoint x="720" y="530" as="targetPoint" />
          </mxGeometry>
        </mxCell>
        <mxCell id="MoRENDN0Ap5jospG5ebb-56" value="подключение к бд" style="edgeLabel;html=1;align=center;verticalAlign=middle;resizable=0;points=[];" vertex="1" connectable="0" parent="MoRENDN0Ap5jospG5ebb-55">
          <mxGeometry x="0.145" y="3" relative="1" as="geometry">
            <mxPoint x="-13" y="-7" as="offset" />
          </mxGeometry>
        </mxCell>
        <mxCell id="MoRENDN0Ap5jospG5ebb-57" value="" style="endArrow=classic;html=1;rounded=0;" edge="1" parent="1">
          <mxGeometry width="50" height="50" relative="1" as="geometry">
            <mxPoint x="360" y="640" as="sourcePoint" />
            <mxPoint x="280" y="640" as="targetPoint" />
          </mxGeometry>
        </mxCell>
        <mxCell id="MoRENDN0Ap5jospG5ebb-58" value="переадресация с&amp;nbsp;&lt;br&gt;данными info_data&lt;br&gt;и unique_data" style="edgeLabel;html=1;align=center;verticalAlign=middle;resizable=0;points=[];" vertex="1" connectable="0" parent="MoRENDN0Ap5jospG5ebb-57">
          <mxGeometry x="-0.195" y="-2" relative="1" as="geometry">
            <mxPoint x="2" y="-28" as="offset" />
          </mxGeometry>
        </mxCell>
        <mxCell id="MoRENDN0Ap5jospG5ebb-59" value="" style="endArrow=classic;html=1;rounded=0;exitX=1;exitY=0.75;exitDx=0;exitDy=0;" edge="1" parent="1" source="MoRENDN0Ap5jospG5ebb-4">
          <mxGeometry width="50" height="50" relative="1" as="geometry">
            <mxPoint x="390" y="650" as="sourcePoint" />
            <mxPoint x="360" y="665" as="targetPoint" />
            <Array as="points" />
          </mxGeometry>
        </mxCell>
        <mxCell id="MoRENDN0Ap5jospG5ebb-60" value="данные о выбранном &lt;br&gt;пациенте" style="edgeLabel;html=1;align=center;verticalAlign=middle;resizable=0;points=[];" vertex="1" connectable="0" parent="MoRENDN0Ap5jospG5ebb-59">
          <mxGeometry x="-0.03" relative="1" as="geometry">
            <mxPoint x="11" y="25" as="offset" />
          </mxGeometry>
        </mxCell>
        <mxCell id="MoRENDN0Ap5jospG5ebb-61" value="" style="endArrow=classic;html=1;rounded=0;entryX=0;entryY=0.5;entryDx=0;entryDy=0;" edge="1" parent="1" target="MoRENDN0Ap5jospG5ebb-5">
          <mxGeometry width="50" height="50" relative="1" as="geometry">
            <mxPoint x="80" y="810" as="sourcePoint" />
            <mxPoint x="100" y="800" as="targetPoint" />
          </mxGeometry>
        </mxCell>
      </root>
    </mxGraphModel>
  </diagram>
</mxfile>
